<?xml version="1.0" encoding="UTF-8"?>
<svg version="1.1" xmlns="http://www.w3.org/2000/svg" width="819" height="236">
<path d="M0 0 C270.27 0 540.54 0 819 0 C819 77.88 819 155.76 819 236 C548.73 236 278.46 236 0 236 C0 158.12 0 80.24 0 0 Z " fill="#FEFEFE" transform="translate(0,0)"/>
<path d="M0 0 C1.52474629 1.17695292 3.02715208 2.383715 4.5 3.625 C5.13292969 4.14707031 5.76585937 4.66914062 6.41796875 5.20703125 C15.47098398 13.42069408 21.23193399 25.52571524 21.96875 37.703125 C22.00264397 39.42678159 22.01255768 41.15105593 22 42.875 C21.99500488 43.78668945 21.99000977 44.69837891 21.98486328 45.63769531 C21.68206403 57.47819026 17.73769183 67.22346215 10.5 76.625 C11.799375 76.563125 13.09875 76.50125 14.4375 76.4375 C22.08940466 76.47353723 28.38867118 78.61574461 34 83.90234375 C41.26095175 92.24109302 41.81138899 103.60051529 41.80078125 114.1640625 C41.80506638 115.12976166 41.8093515 116.09546082 41.81376648 117.09042358 C41.81946792 119.11561301 41.82004126 121.14082289 41.81567383 123.16601562 C41.81250097 126.2490535 41.83607034 129.3311419 41.86132812 132.4140625 C41.8636004 134.39322797 41.86430495 136.37239599 41.86328125 138.3515625 C41.872491 139.26322174 41.88170074 140.17488098 41.89118958 141.11416626 C41.84929849 146.95216501 41.00763946 151.3231337 38.5 156.625 C35.07827839 159.19129121 33.20675431 159.6373992 28.9375 159.5625 C25.20188446 158.54369576 23.2599624 157.30378703 20.5 154.625 C19.32270068 152.27040136 19.36343427 150.83592331 19.34228516 148.21044922 C19.33202301 147.29544647 19.32176086 146.38044373 19.31118774 145.43771362 C19.30023575 143.94874069 19.30023575 143.94874069 19.2890625 142.4296875 C19.26097916 140.33072157 19.23231461 138.23176334 19.203125 136.1328125 C19.1619678 132.821618 19.1250844 129.51056516 19.09863281 126.19921875 C19.07089775 123.00490434 19.02500905 119.81124621 18.9765625 116.6171875 C18.97330963 115.63668427 18.97005676 114.65618103 18.96670532 113.64596558 C18.86029485 107.6471966 18.1198905 103.05847541 15.5 97.625 C12.21508627 95.43505752 10.66904361 95.27222661 6.8125 95 C5.81863281 94.92523438 4.82476563 94.85046875 3.80078125 94.7734375 C3.04152344 94.72445312 2.28226563 94.67546875 1.5 94.625 C1.51571045 95.19420166 1.5314209 95.76340332 1.54760742 96.34985352 C1.61048439 98.96229874 1.64915532 101.5745841 1.6875 104.1875 C1.71263672 105.08275391 1.73777344 105.97800781 1.76367188 106.90039062 C1.82642282 112.61072705 1.35990946 116.63140527 -1.5 121.625 C-4.3901384 124.2731242 -6.27839334 125.00300681 -10.17333984 125.02905273 C-11.55530045 125.04807899 -11.55530045 125.04807899 -12.96517944 125.06748962 C-14.44807968 125.06308617 -14.44807968 125.06308617 -15.9609375 125.05859375 C-17.49592392 125.06645653 -17.49592392 125.06645653 -19.06192017 125.07447815 C-21.22551568 125.0808981 -23.3891461 125.07956172 -25.55273438 125.07104492 C-28.85610491 125.0625486 -32.15773838 125.09127587 -35.4609375 125.12304688 C-37.56510365 125.12465938 -39.66927285 125.12408042 -41.7734375 125.12109375 C-42.7579892 125.13232773 -43.74254089 125.14356171 -44.75692749 125.15513611 C-50.45045117 125.0975574 -54.13844414 124.67898245 -58.5 120.625 C-60.60745728 116.95507842 -60.73029381 113.76247082 -60.703125 109.58203125 C-60.71472656 108.42509766 -60.72632813 107.26816406 -60.73828125 106.07617188 C-60.74603085 103.66992167 -60.73847203 101.26356855 -60.71484375 98.85742188 C-60.86499513 88.43345081 -64.34893665 82.66289444 -70.5625 74.625 C-80.55075402 61.62191866 -81.75900802 47.48334912 -80.5 31.625 C-79.72285015 27.5437999 -78.49529527 24.25655511 -76.5 20.625 C-75.99082031 19.69558594 -75.48164062 18.76617187 -74.95703125 17.80859375 C-67.25136198 4.84825757 -56.78374012 -3.60382775 -42.1796875 -7.67578125 C-27.25636565 -10.51152924 -12.79296589 -8.5350661 0 0 Z " fill="#5913FA" transform="translate(669.5,30.375)"/>
<path d="M0 0 C2.56856741 2.15353856 4.83300619 4.44553047 7 7 C7.391875 5.906875 7.78375 4.81375 8.1875 3.6875 C9.30471186 1.14931823 10.05808889 -0.0546719 12.125 -2 C16.17639916 -3.40918232 19.97521415 -3.60577929 24 -2 C27.21617027 1.22606392 28.79230512 2.87008541 29.62145996 7.38090515 C29.61940552 8.61347549 29.61735107 9.84604584 29.61523438 11.1159668 C29.62078339 11.80143082 29.6263324 12.48689484 29.63204956 13.19313049 C29.64380153 15.44588508 29.61960754 17.6966065 29.59375 19.94921875 C29.5920366 21.52854827 29.59210691 23.10788062 29.59387207 24.68721008 C29.59222099 27.99512004 29.57357303 31.3023506 29.54199219 34.61010742 C29.50247786 38.82182841 29.49792948 43.03265395 29.50545502 47.24452496 C29.50854685 50.50739036 29.49632363 53.77005968 29.47932434 57.03287697 C29.47235616 58.58399026 29.46916219 60.13512579 29.47001648 61.6862545 C29.45819419 75.82039542 27.74939112 88.77744101 17.9375 99.6875 C7.33738923 109.5962992 -6.11397032 111.60677948 -20.0234375 111.25 C-28.57612148 110.7123067 -37.45090344 108.92777202 -44 103 C-45.80351032 100.11786293 -46.00047164 99.02641157 -45.9375 95.5 C-45 92 -45 92 -43 89.5625 C-37.10128086 86.49025045 -31.68533945 87.68944545 -25.5 89.5 C-17.00795635 91.98029091 -9.13883289 91.7990706 -1 88 C2.92931695 84.88776064 4.95451892 80.84723044 6 76 C6.14328278 72.99106163 6.12037001 70.00925037 6 67 C5.29037109 67.70576172 5.29037109 67.70576172 4.56640625 68.42578125 C-2.93942255 75.49267269 -9.71211311 77.6307906 -20.00390625 77.35546875 C-30.00612361 76.168765 -38.03189586 70.71508418 -44.39453125 63.14453125 C-52.22945677 52.67890081 -53.12982172 40.62575777 -52 28 C-49.65666123 15.99038881 -43.8597602 7.47739167 -33.7890625 0.6640625 C-23.2980437 -5.59528485 -10.70420241 -6.39304343 0 0 Z " fill="#5A13FA" transform="translate(561,110)"/>
<path d="M0 0 C3.58552881 1.63687185 4.79315055 2.68972583 7 6 C7.25726891 7.97938347 7.25726891 7.97938347 7.26742554 10.27536011 C7.27595551 11.14733032 7.28448547 12.01930054 7.29327393 12.91769409 C7.29236755 13.87152985 7.29146118 14.8253656 7.29052734 15.80810547 C7.29724457 16.81488342 7.30396179 17.82166138 7.31088257 18.85894775 C7.32991771 22.19507755 7.33378958 25.53100675 7.3359375 28.8671875 C7.34236165 31.18262821 7.34908972 33.4980681 7.35610962 35.81350708 C7.36809624 40.67077517 7.37178902 45.52797206 7.37060547 50.38525391 C7.37040222 56.61203436 7.39770496 62.83835872 7.43214989 69.06503105 C7.45437791 73.84854228 7.45844426 78.63194305 7.45738602 83.41550064 C7.45974813 85.71123959 7.46860581 88.00698131 7.48405075 90.30266953 C7.50362704 93.51314047 7.49790501 96.72261884 7.48583984 99.93310547 C7.49707886 100.88289276 7.50831787 101.83268005 7.51989746 102.81124878 C7.47916546 107.07241305 7.38686547 109.37734085 5.09463501 113.06668091 C2.35154777 115.59851243 1.46902478 115.9646019 -2.3125 116.25 C-6.3832831 115.97401471 -8.00075613 115.74930688 -11 113 C-12.29366865 110.06976257 -13.20102173 107.09847669 -14 104 C-14.78375 105.051875 -15.5675 106.10375 -16.375 107.1875 C-21.37543098 112.85619134 -26.63802553 115.8136584 -34.2265625 116.48046875 C-45.33927137 117.01718894 -53.92345234 115.01281449 -63.3125 108.8125 C-73.15689061 98.51023076 -77.66268471 87.25704712 -77.47290039 72.95825195 C-76.89712419 60.01811091 -72.00892633 49.52174377 -62.6875 40.6875 C-53.94819465 33.3017571 -44.2788218 31.08639882 -33 32 C-26.12571246 33.30109466 -21.55652396 35.85465672 -16 40 C-15.9906543 39.0620459 -15.98130859 38.1240918 -15.97167969 37.15771484 C-15.92750562 33.65713676 -15.86582333 30.15775697 -15.79248047 26.65771484 C-15.76436218 25.14676062 -15.74310229 23.63566179 -15.72900391 22.12451172 C-15.70744551 19.94423897 -15.66073684 17.76568781 -15.609375 15.5859375 C-15.58842773 14.2767334 -15.56748047 12.9675293 -15.54589844 11.61865234 C-14.91433255 7.43212747 -13.64915698 5.26721337 -11 2 C-7.29361264 -0.47092491 -4.29830496 -0.55407837 0 0 Z " fill="#5A13FA" transform="translate(310,74)"/>
<path d="M0 0 C3.91826528 3.43388812 7.48782169 7.01539521 8.08203125 12.36328125 C7.69788767 16.28154575 6.47696808 17.76371392 3.76953125 20.55078125 C0.67525097 22.09792139 -1.80249323 21.79664015 -5.23046875 21.55078125 C-8.73046875 20.08984375 -8.73046875 20.08984375 -12.23046875 18.17578125 C-21.80986828 12.97981231 -30.36112801 11.28818106 -41.23046875 12.55078125 C-45.60662447 14.04106663 -49.35676666 16.04426813 -53.23046875 18.55078125 C-53.85695312 18.94523437 -54.4834375 19.3396875 -55.12890625 19.74609375 C-62.11237802 24.81531437 -65.76230268 34.31528722 -67.23046875 42.55078125 C-68.1486411 55.14695823 -66.92146292 67.58241547 -58.51171875 77.59765625 C-53.45514917 82.44698937 -47.85883599 84.55905862 -41.23046875 86.55078125 C-40.24046875 86.88078125 -39.25046875 87.21078125 -38.23046875 87.55078125 C-27.7208108 88.70207398 -20.22477607 85.69908288 -11.0546875 80.8828125 C-0.52492856 75.36222905 -0.52492856 75.36222905 4.76953125 76.55078125 C7.81466029 78.55927062 9.39613841 80.03740874 10.28515625 83.640625 C10.59185416 87.71831311 10.09693367 90.79532504 7.64453125 94.11328125 C-2.33309632 104.23243545 -16.42295441 108.84280592 -30.32617188 109.06982422 C-31.36708984 109.06354004 -32.40800781 109.05725586 -33.48046875 109.05078125 C-35.11918945 109.04328857 -35.11918945 109.04328857 -36.79101562 109.03564453 C-49.55811475 108.76163189 -60.08661176 105.58305985 -70.23046875 97.55078125 C-71.14699219 96.89335937 -71.14699219 96.89335937 -72.08203125 96.22265625 C-82.10984719 88.53613654 -88.47259904 74.84174601 -90.23046875 62.55078125 C-91.91181361 35.36865289 -91.91181361 35.36865289 -86.23046875 23.55078125 C-85.74449219 22.53371094 -85.25851563 21.51664063 -84.7578125 20.46875 C-77.28281445 6.4199948 -65.16980416 -3.32954476 -50.16796875 -8.44921875 C-33.46849829 -12.19305283 -14.02595894 -10.37867325 0 0 Z " fill="#5A13FB" transform="translate(107.23046875,82.44921875)"/>
<path d="M0 0 C7.18854233 6.18548991 12.9794132 12.32267175 13.9609375 22.01171875 C14.22159208 29.36017278 12.92921456 33.9112779 8.875 40.0625 C4.99550227 44.05284052 1.28179374 45.48071395 -4.21630859 45.65307617 C-6.13125059 45.65260478 -8.04623676 45.63586883 -9.9609375 45.60546875 C-10.97346588 45.60122391 -11.98599426 45.59697906 -13.02920532 45.59260559 C-16.24891248 45.57587302 -19.46798344 45.53823026 -22.6875 45.5 C-24.87629302 45.48494618 -27.06509589 45.471259 -29.25390625 45.45898438 C-34.60698626 45.42598732 -39.95969766 45.37584196 -45.3125 45.3125 C-44.70298878 46.59939255 -44.08556025 47.88253708 -43.46484375 49.1640625 C-43.12187256 49.87900879 -42.77890137 50.59395508 -42.42553711 51.33056641 C-39.93536353 55.76470308 -35.99000381 57.78554628 -31.3125 59.3125 C-28.61191054 59.58227497 -26.07526422 59.74024955 -23.375 59.75 C-22.25762451 59.75580078 -22.25762451 59.75580078 -21.11767578 59.76171875 C-14.57651994 59.62802683 -9.47417124 58.02702984 -3.4609375 55.40625 C0.83658983 53.91331247 4.75422675 53.60024144 9.0625 55.1875 C10.6875 56.3125 10.6875 56.3125 11.6875 58.3125 C12.16763033 62.4736295 12.03308666 64.70772335 9.9375 68.375 C2.66620894 76.08008967 -8.93753628 79.20495178 -19.21484375 79.61328125 C-20.89312163 79.63267761 -22.57164795 79.63628141 -24.25 79.625 C-25.13026855 79.61936035 -26.01053711 79.6137207 -26.91748047 79.60791016 C-38.28154493 79.39508418 -47.68927727 76.18835518 -56.3203125 68.53125 C-66.66760954 57.60163754 -67.87624269 44.8912448 -67.65625 30.578125 C-67.37857862 24.05747542 -65.68570113 18.89572946 -62.3125 13.3125 C-61.87808594 12.57 -61.44367188 11.8275 -60.99609375 11.0625 C-47.76837185 -8.83561157 -19.59520036 -9.98246056 0 0 Z " fill="#5A13FB" transform="translate(403.3125,111.6875)"/>
<path d="M0 0 C0.74838135 0.00974854 1.4967627 0.01949707 2.26782227 0.02954102 C12.48354538 0.35572765 19.08447096 3.88656436 26.484375 10.92578125 C32.86418389 18.19921586 35.03262438 26.04215638 34.89453125 35.5078125 C34.15877689 45.91943075 28.83505295 53.45205037 23.0390625 61.81640625 C18.68588865 68.16938839 15.15630544 73.96364889 13.98828125 81.6796875 C13.81558716 82.82050781 13.81558716 82.82050781 13.6394043 83.984375 C13.42453521 85.51461522 13.23634702 87.04888274 13.07739258 88.5859375 C12.7890625 90.7421875 12.7890625 90.7421875 11.6875 94.4375 C7.74559299 97.32030269 4.37295784 97.82996925 -0.4375 97.75 C-1.45070313 97.74613281 -2.46390625 97.74226563 -3.5078125 97.73828125 C-6.31678819 97.43704012 -7.99473889 97.03429855 -10.3125 95.4375 C-11.31712159 92.42363523 -11.44412085 90.21645882 -11.5625 87.0625 C-12.50552083 75.53823068 -17.42915087 66.76358603 -24.08984375 57.58984375 C-31.11001022 47.63329833 -34.38333789 39.65410132 -33.3125 27.4375 C-30.9108802 17.85846788 -25.37529449 10.57107808 -17.53515625 4.76171875 C-11.57510031 1.21082426 -6.86497093 -0.10007699 0 0 Z " fill="#FDFCFE" transform="translate(639.3125,39.5625)"/>
<path d="M0 0 C3.69914258 1.68142845 6.04665422 3.43834388 8 7 C8.36959361 10.25756328 8.28177362 13.47701325 8.1875 16.75 C8.16719727 18.08224609 8.16719727 18.08224609 8.14648438 19.44140625 C8.11121309 21.62822578 8.06192752 23.81379966 8 26 C8.60996826 25.97381592 9.21993652 25.94763184 9.84838867 25.9206543 C12.62782758 25.81634281 15.40685439 25.75157018 18.1875 25.6875 C19.14720703 25.64560547 20.10691406 25.60371094 21.09570312 25.56054688 C28.21901968 25.4373061 28.21901968 25.4373061 32.14453125 28.265625 C34.92991449 32.3704003 34.61915363 34.12416518 34 39 C32.25746655 42.23613354 31.52814056 42.82395315 28 44 C26.44578271 44.08106686 24.88832973 44.10756898 23.33203125 44.09765625 C22.43935547 44.09443359 21.54667969 44.09121094 20.62695312 44.08789062 C19.69818359 44.07951172 18.76941406 44.07113281 17.8125 44.0625 C16.40194336 44.05573242 16.40194336 44.05573242 14.96289062 44.04882812 C12.64186288 44.03704626 10.32096356 44.02059558 8 44 C8.06906932 49.15997451 8.15712862 54.31915352 8.26245117 59.47851562 C8.2956122 61.23200627 8.32367142 62.98560138 8.34643555 64.73925781 C8.3801447 67.26672698 8.43246692 69.79324638 8.48828125 72.3203125 C8.49467117 73.09867462 8.5010611 73.87703674 8.50764465 74.6789856 C8.63591051 79.47621354 9.3680758 82.83651776 12 87 C14.29417211 88.14708605 15.66021357 88.13819903 18.2109375 88.17578125 C19.04367187 88.19962891 19.87640625 88.22347656 20.734375 88.24804688 C22.48673583 88.290819 24.23941457 88.32217628 25.9921875 88.34179688 C32.36073736 88.55309907 32.36073736 88.55309907 35.5703125 90.796875 C37.71227201 94.09759949 37.73836792 97.24849431 37 101 C34.64624884 105.01009457 32.44202422 106.73085022 28 108 C16.65453953 110.15420135 5.90234114 109.97391304 -4.09765625 103.6796875 C-9.92995089 99.14758593 -12.88251338 93.22368936 -14 86 C-14.13491258 82.77420495 -14.1163161 79.55233606 -14.09765625 76.32421875 C-14.0962413 75.3990596 -14.09482635 74.47390045 -14.09336853 73.52070618 C-14.08778715 70.57627073 -14.07523805 67.63191233 -14.0625 64.6875 C-14.05748259 62.68685006 -14.05292011 60.68619892 -14.04882812 58.68554688 C-14.03782381 53.79033506 -14.02057198 48.89518058 -14 44 C-15.02480469 44.04640625 -16.04960938 44.0928125 -17.10546875 44.140625 C-18.46611656 44.17816011 -19.82679605 44.21455841 -21.1875 44.25 C-21.86103516 44.28351563 -22.53457031 44.31703125 -23.22851562 44.3515625 C-26.89041975 44.42301429 -28.82150622 44.11534178 -31.92578125 42.109375 C-34.38877064 39.60464003 -34.92531035 38.67220687 -35.3125 35.1875 C-34.92835642 31.2692355 -33.70743683 29.78706733 -31 27 C-27.93466836 25.46733418 -24.73245728 25.89723529 -21.375 25.9375 C-20.31539062 25.94426758 -20.31539062 25.94426758 -19.234375 25.95117188 C-17.48954725 25.96296125 -15.744763 25.98089676 -14 26 C-14.05800781 24.69804688 -14.11601563 23.39609375 -14.17578125 22.0546875 C-14.22269773 20.32816099 -14.26819586 18.60159552 -14.3125 16.875 C-14.35439453 16.0190625 -14.39628906 15.163125 -14.43945312 14.28125 C-14.52386769 9.89169276 -14.44503851 6.93455246 -11.60546875 3.4453125 C-7.64013335 -0.27627664 -5.41349781 -0.3670168 0 0 Z " fill="#5A12FA" transform="translate(750,81)"/>
<path d="M0 0 C3.02508145 1.73602105 5.41790069 3.83580137 7 7 C7.09970052 8.34202441 7.1393486 9.68878485 7.14717102 11.03448486 C7.15432632 11.87839279 7.16148163 12.72230072 7.16885376 13.59178162 C7.17288712 14.98349327 7.17288712 14.98349327 7.17700195 16.40332031 C7.18357315 17.37908524 7.19014435 18.35485016 7.19691467 19.36018372 C7.21667599 22.5994982 7.22831688 25.83876626 7.23828125 29.078125 C7.24235678 30.18309074 7.2464323 31.28805649 7.25063133 32.42650604 C7.27150464 38.27538365 7.28580063 44.12423771 7.29516602 49.97314453 C7.30623016 56.01710974 7.34062685 62.06070674 7.38033772 68.10454178 C7.40647467 72.74911182 7.4148553 77.39359378 7.41844749 82.0382309 C7.42332137 84.26616654 7.43495801 86.49409804 7.45348549 88.72196198 C7.47781309 91.84130565 7.47692322 94.95969221 7.4699707 98.07910156 C7.48278076 98.99881241 7.49559082 99.91852325 7.50878906 100.86610413 C7.46263697 106.55010711 6.70237398 109.62719021 3 114 C-0.20785018 116.35242347 -3.09649252 116.4684209 -7 116 C-10.98824068 113.85248579 -13.32739402 112.20805661 -15 108 C-15.26006222 105.94721413 -15.26006222 105.94721413 -15.27415466 103.7250061 C-15.28412979 102.87834885 -15.29410492 102.03169159 -15.30438232 101.15937805 C-15.305047 100.23876083 -15.30571167 99.31814362 -15.30639648 98.36962891 C-15.31472 97.39357193 -15.32304352 96.41751495 -15.33161926 95.41188049 C-15.35572623 92.18340066 -15.36449205 88.95512281 -15.37109375 85.7265625 C-15.38005912 83.48220763 -15.38918095 81.23785338 -15.39845276 78.99349976 C-15.41494691 74.28764391 -15.42264374 69.58185925 -15.42553711 64.87597656 C-15.43092309 58.84764284 -15.46861092 52.8199785 -15.51428127 46.79183388 C-15.54403037 42.15582844 -15.5512602 37.51998466 -15.55226326 32.88389206 C-15.55646934 30.66153267 -15.56891907 28.43917296 -15.58978081 26.2169075 C-15.61665125 23.1071581 -15.61188215 19.99896657 -15.59936523 16.88916016 C-15.61419952 15.9725914 -15.62903381 15.05602264 -15.64431763 14.11167908 C-15.59457365 9.76938133 -15.37079486 6.89332937 -12.58753967 3.44442749 C-8.69130576 -0.23631271 -5.27214422 -0.89988361 0 0 Z " fill="#5911FA" transform="translate(447,74)"/>
<path d="M0 0 C3.52787301 1.95657197 5.70285021 4.10855063 7 8 C7.10421126 10.06879282 7.1486161 12.14078015 7.16113281 14.2121582 C7.17074036 15.49391434 7.1803479 16.77567047 7.19024658 18.0962677 C7.195095 19.4977704 7.19937372 20.89927518 7.203125 22.30078125 C7.20887936 23.73943584 7.21463706 25.17809043 7.22039795 26.616745 C7.23090039 29.63374183 7.2367478 32.65071207 7.24023438 35.66772461 C7.24571343 39.52457317 7.26973168 43.38106769 7.29820633 47.23780537 C7.31687617 50.2104544 7.32204064 53.18301896 7.32357025 56.15572166 C7.32658821 57.57702759 7.33458773 58.99833233 7.34775543 60.41958046 C7.36490275 62.41286806 7.36107837 64.40630223 7.35644531 66.3996582 C7.36009094 67.53200394 7.36373657 68.66434967 7.36749268 69.83100891 C6.82476846 74.51107005 5.3677075 77.89104798 1.6875 80.875 C-1.56935609 82.23833511 -3.49670169 82.50047119 -7 82 C-10.6578218 79.96006092 -12.66946174 78.49580738 -15 75 C-15.27415466 72.09806824 -15.27415466 72.09806824 -15.30639648 68.51245117 C-15.31472 67.85840805 -15.32304352 67.20436493 -15.33161926 66.53050232 C-15.3557168 64.36793055 -15.36449162 62.20566055 -15.37109375 60.04296875 C-15.3800616 58.53705251 -15.38918348 57.03113719 -15.39845276 55.52522278 C-15.41494553 52.36697221 -15.42264314 49.20882767 -15.42553711 46.05053711 C-15.43091572 42.01181253 -15.46857123 37.97409067 -15.51428127 33.93564892 C-15.54409054 30.82400416 -15.55126152 27.71259947 -15.55226326 24.60082436 C-15.55645938 23.11250538 -15.56886948 21.62418529 -15.58978081 20.13600731 C-15.75916337 7.03690075 -15.75916337 7.03690075 -12.59008789 3.1027832 C-8.56598764 -0.1642142 -5.12214219 -0.86477725 0 0 Z " fill="#5A14FA" transform="translate(486,108)"/>
<path d="M0 0 C5.51839246 3.238065 8.28357661 8.05203876 9.890625 14.109375 C10.72755109 22.53149441 10.94052911 30.62075203 6.5234375 38.1171875 C3.11585637 42.27476256 -1.08485558 44.43453519 -6.109375 46.109375 C-12.48488597 46.64967254 -16.780992 45.72887793 -22.109375 42.109375 C-28.09235347 36.28809865 -29.31363885 29.70645828 -29.546875 21.671875 C-29.38505104 14.60087158 -28.51958075 8.89330193 -23.68359375 3.52734375 C-16.70352821 -2.73126799 -8.48362669 -3.54041114 0 0 Z " fill="#FDFCFE" transform="translate(285.109375,125.890625)"/>
<path d="M0 0 C2.75 1.0625 2.75 1.0625 4.6875 2.625 C6.31724528 6.3638274 6.1657927 9.3265639 4.75 13.0625 C1.74109866 16.88700646 -1.75157679 20.13144859 -5.3125 23.4375 C-7.18226697 25.21206498 -9.04836741 26.99050404 -10.91015625 28.7734375 C-12.15744507 29.93818604 -12.15744507 29.93818604 -13.42993164 31.12646484 C-15.47831634 32.86249169 -15.47831634 32.86249169 -15.25 35.0625 C-13.86707981 36.46072971 -13.86707981 36.46072971 -12 37.9375 C-8.09432862 41.25416528 -4.43478783 44.75596377 -0.8125 48.375 C-0.28043945 48.90270996 0.25162109 49.43041992 0.79980469 49.97412109 C5.63561544 54.8271467 5.63561544 54.8271467 6.0625 59.4375 C5.75 63.0625 5.75 63.0625 4.125 65.5 C1.75 67.0625 1.75 67.0625 -1 67.75 C-6.02500104 66.68701901 -8.62575317 63.56907648 -12.25 60.0625 C-13.29917822 59.09579584 -14.35147713 58.13247172 -15.40625 57.171875 C-33.81521752 40.39583237 -33.81521752 40.39583237 -34.625 34.1875 C-33.65969618 26.14330153 -25.88047935 20.39561477 -20.4375 15 C-19.56029297 14.11505859 -18.68308594 13.23011719 -17.77929688 12.31835938 C-5.53065101 0.10635867 -5.53065101 0.10635867 0 0 Z " fill="#5812FB" transform="translate(161.25,106.9375)"/>
<path d="M0 0 C2.375 2.5 2.375 2.5 4 5 C4.35707031 5.52851563 4.71414063 6.05703125 5.08203125 6.6015625 C6.50194882 10.3114748 6.32840274 13.93748219 6.3125 17.875 C6.32861328 18.66519531 6.34472656 19.45539063 6.36132812 20.26953125 C6.36548258 25.26318644 5.74389704 28.67030155 3 33 C-2.84714587 38.53940135 -8.28624235 39.46060597 -16.12109375 39.31640625 C-21.35034541 38.74168524 -23.91223278 36.20536367 -27.3125 32.4375 C-31.70187521 26.09729136 -30.8127631 16.46025437 -30 9 C-28.12402565 3.15375234 -24.38773253 -0.13418483 -19 -3 C-12.18278225 -5.638923 -5.83246693 -3.92643199 0 0 Z " fill="#FDFBFE" transform="translate(562,128)"/>
<path d="M0 0 C2.60555676 0.68985386 3.8263106 1.68874575 5.80639648 3.5078125 C6.49870361 4.14178955 7.19101074 4.7757666 7.90429688 5.42895508 C11.995857 9.32337438 16.03328738 13.26514945 20.02905273 17.2578125 C20.88241211 18.09892578 21.73577148 18.94003906 22.61499023 19.80664062 C23.83702148 21.02577148 23.83702148 21.02577148 25.08374023 22.26953125 C25.81834473 23.00002686 26.55294922 23.73052246 27.30981445 24.4831543 C30.43836696 28.02379441 31.15515775 29.5494751 31.14990234 34.40454102 C30.36058434 39.33384297 27.75347958 41.89089591 24.22045898 45.22265625 C23.62732407 45.80825821 23.03418915 46.39386017 22.42308044 46.99720764 C20.53676237 48.85116093 18.62724789 50.67902837 16.71655273 52.5078125 C15.43571031 53.76209554 14.15639587 55.01794095 12.87866211 56.27539062 C2.50811235 66.42313211 2.50811235 66.42313211 -1.72094727 66.8828125 C-4.84594727 66.5703125 -4.84594727 66.5703125 -7.22094727 65.0078125 C-9.56760289 61.48782907 -9.61024387 59.73920307 -8.84594727 55.5703125 C-4.89264607 49.09089466 1.85646962 44.02285845 7.44165039 38.96240234 C8.03510254 38.42309082 8.62855469 37.8837793 9.23999023 37.328125 C9.77672363 36.8448877 10.31345703 36.36165039 10.86645508 35.86376953 C12.28094308 34.57825956 12.28094308 34.57825956 13.15405273 32.5703125 C12.57284668 32.31362793 11.99164063 32.05694336 11.39282227 31.79248047 C8.94740626 30.457502 7.30480975 28.97971021 5.33374023 27.015625 C4.6337793 26.31824219 3.93381836 25.62085938 3.21264648 24.90234375 C2.13176758 23.80986328 2.13176758 23.80986328 1.02905273 22.6953125 C0.30073242 21.97472656 -0.42758789 21.25414062 -1.17797852 20.51171875 C-1.87536133 19.81175781 -2.57274414 19.11179687 -3.29125977 18.390625 C-3.92563965 17.75398926 -4.56001953 17.11735352 -5.21362305 16.46142578 C-7.715633 13.56274659 -8.76115934 11.38427662 -9.15844727 7.5703125 C-8.5383511 1.61738932 -6.14038104 -0.33337664 0 0 Z " fill="#5812FB" transform="translate(193.845947265625,107.4296875)"/>
<path d="M0 0 C0.95910782 -0.00287018 1.91821564 -0.00574036 2.90638733 -0.00869751 C4.93295889 -0.0107372 6.95955018 -0.00521402 8.98608398 0.00732422 C12.08296935 0.02336144 15.17854614 0.00748114 18.27539062 -0.01171875 C20.24609662 -0.00973596 22.21680181 -0.00589154 24.1875 0 C25.11159164 -0.00607269 26.03568329 -0.01214539 26.98777771 -0.0184021 C32.34122665 0.03994663 36.17927633 0.41755758 40.16015625 4.3984375 C40.57360098 9.66985785 40.10359153 12.98328457 37.16015625 17.3984375 C31.13263884 24.14867882 24.93082668 26.82424144 16.01953125 27.7109375 C7.14144251 28.0475475 -0.26411106 26.31911794 -7.77734375 21.5234375 C-12.78564677 16.36336772 -14.28406965 12.74955503 -14.37109375 5.66796875 C-13.83984375 3.3984375 -13.83984375 3.3984375 -12.42163086 1.78149414 C-8.40495625 -0.370228 -4.48771145 -0.02942666 0 0 Z " fill="#5A15FA" transform="translate(626.83984375,162.6015625)"/>
<path d="M0 0 C3.72472962 1.92887784 5.5566928 3.09486884 7.5 6.8125 C7.4375 10.5 7.4375 10.5 6.5 13.8125 C2.75995683 16.30586211 -0.12561609 16.06731228 -4.44921875 16.0078125 C-5.60814384 16.00356766 -5.60814384 16.00356766 -6.79048157 15.99923706 C-9.25631243 15.98804878 -11.72177906 15.96294703 -14.1875 15.9375 C-15.86002079 15.92746843 -17.53254728 15.91834289 -19.20507812 15.91015625 C-23.30352559 15.88811392 -27.40170106 15.85359363 -31.5 15.8125 C-30.53961475 10.1366232 -28.31908567 6.491656 -24.0625 2.5625 C-16.93128297 -2.30759943 -8.1465666 -2.69004826 0 0 Z " fill="#FCFAFE" transform="translate(388.5,125.1875)"/>
<path d="M0 0 C3.16702888 1.67593746 5.37374246 3.74748493 7 7 C7.34717992 12.29449372 7.52421718 15.74663444 4 20 C0.26490445 23.18581679 -3.11459789 23.47009909 -7.8515625 23.28125 C-10.93603555 22.87746444 -12.6661568 22.05927341 -15 20 C-18.05479472 15.7232874 -18.51277588 12.18557547 -17.68359375 7.125 C-16.79009953 4.34750939 -15.41559243 2.4855677 -13.0078125 0.81640625 C-8.74532926 -0.91678246 -4.47074448 -0.84904346 0 0 Z " fill="#5712FA" transform="translate(487,72)"/>
<path d="M0 0 C2.92761527 0.32529059 5.32615294 0.59569177 7.875 2.125 C9.67978104 5.13296839 9.36014443 7.57862792 9 11 C7.5 13.4375 7.5 13.4375 6 15 C5.34 14.67 4.68 14.34 4 14 C4.7115625 13.1646875 4.7115625 13.1646875 5.4375 12.3125 C7.12395996 9.81653926 7.58953107 7.9553763 8 5 C7.05125 4.690625 6.1025 4.38125 5.125 4.0625 C2 3 2 3 0 2 C0 1.34 0 0.68 0 0 Z " fill="#420EFC" transform="translate(406,166)"/>
<path d="M0 0 C0.69287109 0.01804687 1.38574219 0.03609375 2.09960938 0.0546875 C3.79617664 0.10148936 5.49202476 0.17322376 7.1875 0.25 C7.1875 0.58 7.1875 0.91 7.1875 1.25 C-0.7325 1.745 -0.7325 1.745 -8.8125 2.25 C-8.8125 3.24 -8.8125 4.23 -8.8125 5.25 C-9.8025 5.25 -10.7925 5.25 -11.8125 5.25 C-12.1425 7.23 -12.4725 9.21 -12.8125 11.25 C-13.1425 11.25 -13.4725 11.25 -13.8125 11.25 C-13.44810112 4.93375272 -13.44810112 4.93375272 -10.75 2.03125 C-7.08839614 -0.18908426 -4.13973757 -0.20599651 0 0 Z " fill="#3811FA" transform="translate(728.8125,106.75)"/>
<path d="M0 0 C1.10408203 0.01353516 1.10408203 0.01353516 2.23046875 0.02734375 C4.0287888 0.05069856 5.82693911 0.08656164 7.625 0.125 C7.625 0.455 7.625 0.785 7.625 1.125 C5.97951172 1.32416016 5.97951172 1.32416016 4.30078125 1.52734375 C2.84634199 1.70562985 1.39191558 1.8840208 -0.0625 2.0625 C-1.1443457 2.19301758 -1.1443457 2.19301758 -2.24804688 2.32617188 C-5.99510584 2.78813805 -9.68292911 3.31667679 -13.375 4.125 C-13.705 3.465 -14.035 2.805 -14.375 2.125 C-9.40488327 0.13381759 -5.25166865 -0.12345695 0 0 Z " fill="#3A0DFB" transform="translate(377.375,105.875)"/>
<path d="M0 0 C0.66 0.33 1.32 0.66 2 1 C0.31003952 2.68996048 -1.38421498 4.3616141 -3.125 6 C-5.21598078 7.95103635 -5.21598078 7.95103635 -6 11 C-6.66 11 -7.32 11 -8 11 C-9.62514468 12.45833358 -9.62514468 12.45833358 -11 14 C-9.18352668 8.00563806 -5.14218863 3.42812575 0 0 Z " fill="#4414FC" transform="translate(352,113)"/>
<path d="M0 0 C0.99 0.495 0.99 0.495 2 1 C2 1.66 2 2.32 2 3 C2.99 3.33 3.98 3.66 5 4 C5.33 6.31 5.66 8.62 6 11 C3.02753198 8.45217026 1.58464712 5.54659117 0 2 C0 1.34 0 0.68 0 0 Z " fill="#3C0AFC" transform="translate(21,157)"/>
<path d="M0 0 C0.33 0 0.66 0 1 0 C1.13277344 0.68707031 1.26554687 1.37414062 1.40234375 2.08203125 C1.57894531 2.98308594 1.75554687 3.88414063 1.9375 4.8125 C2.11152344 5.70582031 2.28554688 6.59914063 2.46484375 7.51953125 C2.97741153 10.11397171 2.97741153 10.11397171 4 13 C3.01 13 2.02 13 1 13 C0.1276588 10.00519083 -0.10829766 7.36424089 -0.0625 4.25 C-0.05347656 3.45078125 -0.04445313 2.6515625 -0.03515625 1.828125 C-0.02355469 1.22484375 -0.01195312 0.6215625 0 0 Z " fill="#601DFA" transform="translate(471,79)"/>
<path d="M0 0 C-2.31 0.66 -4.62 1.32 -7 2 C-7 2.66 -7 3.32 -7 4 C-7.99 4 -8.98 4 -10 4 C-9 1 -9 1 -6.6875 -0.25 C-3.90126985 -1.0275526 -2.66561622 -0.98726527 0 0 Z " fill="#3E0EFB" transform="translate(263,109)"/>
<path d="M0 0 C0 3.10551666 -0.5393715 4.35261084 -2 7 C-2.66 7 -3.32 7 -4 7 C-4 7.66 -4 8.32 -4 9 C-4.66 8.67 -5.32 8.34 -6 8 C-4.02 5.36 -2.04 2.72 0 0 Z " fill="#3F0EFA" transform="translate(666,95)"/>
</svg>
